<svg width="48" height="49" viewBox="0 0 48 49" fill="none" xmlns="http://www.w3.org/2000/svg">
<path fill-rule="evenodd" clip-rule="evenodd" d="M41.0066 7.00682C36.4944 2.49083 30.4935 0.00253828 24.1002 0C10.927 0 0.205666 10.7173 0.200394 23.8905C0.198636 28.1014 1.29921 32.2118 3.39055 35.8349L0 48.2158L12.6696 44.8935C16.1604 46.7968 20.0907 47.7999 24.0907 47.8016H24.1005C37.2723 47.8016 47.9947 37.0829 48 23.9096C48.0025 17.5256 45.5189 11.5228 41.0066 7.00682ZM24.1005 43.7663H24.0924C20.528 43.7649 17.0318 42.8077 13.982 40.9983L13.2566 40.5679L5.73833 42.5395L7.74513 35.2116L7.27275 34.4603C5.2843 31.2985 4.23404 27.6441 4.2356 23.892C4.23997 12.9429 13.1512 4.03521 24.1084 4.03521C29.4141 4.03723 34.4017 6.10553 38.1521 9.85906C41.9026 13.6126 43.9669 18.6019 43.9649 23.908C43.9603 34.8579 35.0492 43.7663 24.1005 43.7663ZM34.9965 28.8937C34.3993 28.5949 31.4634 27.1506 30.916 26.9514C30.3686 26.7521 29.9706 26.6526 29.5724 27.2502C29.1743 27.8478 28.0299 29.1925 27.6814 29.5909C27.3331 29.9894 26.9848 30.0392 26.3876 29.7403C25.7905 29.4415 23.8663 28.8112 21.5853 26.7773C19.8102 25.1945 18.6116 23.2394 18.2632 22.6418C17.9149 22.0441 18.2262 21.721 18.5251 21.4234C18.7937 21.1559 19.1223 20.7261 19.4209 20.3775C19.7194 20.0289 19.8189 19.7799 20.018 19.3815C20.2171 18.9831 20.1175 18.6344 19.9682 18.3356C19.8189 18.0368 18.6247 15.0984 18.127 13.9031C17.6423 12.739 17.15 12.8965 16.7834 12.8783C16.4355 12.861 16.037 12.8573 15.6389 12.8573C15.2408 12.8573 14.5939 13.0067 14.0464 13.6043C13.4991 14.202 11.9565 15.6463 11.9565 18.5846C11.9565 21.523 14.0962 24.3617 14.3948 24.7601C14.6934 25.1586 18.6057 31.1885 24.5962 33.7744C26.0209 34.3894 27.1333 34.7567 28.0005 35.032C29.4311 35.4862 30.7329 35.4221 31.7619 35.2685C32.9092 35.0971 35.295 33.8242 35.7927 32.4297C36.2903 31.0353 36.2903 29.84 36.141 29.591C35.9918 29.342 35.5937 29.1925 34.9965 28.8937Z" fill="#121212"/>
</svg>
